<svg xmlns="http://www.w3.org/2000/svg" xmlns:xlink="http://www.w3.org/1999/xlink" version="1.1" width="256" height="256" viewBox="0 0 256 256" xml:space="preserve">
<g style="stroke: none; stroke-width: 0; stroke-dasharray: none; stroke-linecap: butt; stroke-linejoin: miter; stroke-miterlimit: 10; fill: none; fill-rule: nonzero; opacity: 1;" transform="translate(1.4065934065934016 1.4065934065934016) scale(2.81 2.81)">
	<path d="M 47.123 30.097 c 12.986 -2.782 22.563 -9.474 21.39 -14.947 c -0.625 -2.916 -4.176 -4.897 -9.321 -5.691 c -0.513 -0.079 -0.991 0.279 -1.048 0.795 l -0.354 3.235 c -0.027 0.245 -0.359 0.3 -0.463 0.076 L 55.26 9.097 h 0 l -3.286 -7.101 c -0.872 -1.884 -3.202 -2.573 -4.958 -1.465 l -4.418 2.786 c -0.689 0.435 -1.511 0.611 -2.318 0.496 l -5.172 -0.732 c -2.056 -0.291 -3.899 1.291 -3.923 3.367 l -0.145 12.745 c -0.003 0.247 -0.328 0.333 -0.453 0.12 L 28.94 16.51 c -0.263 -0.447 -0.846 -0.578 -1.281 -0.296 c -4.368 2.832 -6.796 6.094 -6.172 9.01 C 22.659 30.697 34.137 32.879 47.123 30.097 z" style="stroke: none; stroke-width: 1; stroke-dasharray: none; stroke-linecap: butt; stroke-linejoin: miter; stroke-miterlimit: 10; fill: rgb(231,6,6); fill-rule: nonzero; opacity: 1;" transform=" matrix(1 0 0 1 0 0) " stroke-linecap="round"/>
	<path d="M 32.071 34.323 v 3.685 c 0 1.698 0.949 3.254 2.459 4.031 l 8.396 4.321 c 1.302 0.67 2.847 0.67 4.149 0 l 8.396 -4.321 c 1.51 -0.777 2.459 -2.333 2.459 -4.031 v -8.195 c -3.137 1.448 -6.809 2.675 -10.807 3.531 C 41.605 34.528 36.369 34.805 32.071 34.323 z" style="stroke: none; stroke-width: 1; stroke-dasharray: none; stroke-linecap: butt; stroke-linejoin: miter; stroke-miterlimit: 10; fill: rgb(231,6,6); fill-rule: nonzero; opacity: 1;" transform=" matrix(1 0 0 1 0 0) " stroke-linecap="round"/>
	<path d="M 69.479 49.179 l -11.218 -2.702 l -9.637 17.895 l -1.892 -9.75 l 2.166 -5.653 c -2.599 1.646 -5.198 1.646 -7.797 0 l 2.166 5.653 l -1.892 9.751 l -9.631 -17.884 l -11.219 2.693 c -1.856 0.552 -3.129 2.258 -3.129 4.195 v 30.341 c 0 1.45 0.974 2.736 2.38 3.091 c 16.816 4.256 33.632 4.256 50.448 0 c 1.406 -0.356 2.38 -1.641 2.38 -3.091 V 53.372 C 72.604 51.438 71.333 49.732 69.479 49.179 z M 52.061 70.107 l 6.757 -6.454 l 6.757 6.454 H 52.061 z" style="stroke: none; stroke-width: 1; stroke-dasharray: none; stroke-linecap: butt; stroke-linejoin: miter; stroke-miterlimit: 10; fill: rgb(231,6,6); fill-rule: nonzero; opacity: 1;" transform=" matrix(1 0 0 1 0 0) " stroke-linecap="round"/>
</g>
</svg>